<svg width="202" height="307" viewBox="0 0 202 307" fill="none" xmlns="http://www.w3.org/2000/svg">
<path d="M201 265.533H101" stroke="#0DA2CC" stroke-width="2" stroke-linecap="round" stroke-linejoin="round"/>
<path d="M150.836 252.31V259.435H149.391V250.982H150.797L150.836 252.31ZM153.477 250.935L153.469 252.279C153.349 252.253 153.234 252.237 153.125 252.232C153.021 252.221 152.901 252.216 152.766 252.216C152.432 252.216 152.138 252.268 151.883 252.372C151.628 252.476 151.411 252.622 151.234 252.81C151.057 252.997 150.917 253.221 150.812 253.482C150.714 253.737 150.648 254.018 150.617 254.325L150.211 254.56C150.211 254.049 150.26 253.57 150.359 253.122C150.464 252.674 150.622 252.279 150.836 251.935C151.049 251.586 151.32 251.315 151.648 251.122C151.982 250.924 152.378 250.825 152.836 250.825C152.94 250.825 153.06 250.838 153.195 250.865C153.331 250.885 153.424 250.909 153.477 250.935Z" fill="#0DA2CC"/>
<path d="M101 24.439L101 265.533" stroke="#0DA2CC" stroke-width="2" stroke-linecap="round" stroke-linejoin="round"/>
<path d="M110.641 155.619V167.619H109.195V155.619H110.641ZM110.297 163.073L109.695 163.049C109.701 162.471 109.786 161.937 109.953 161.448C110.12 160.953 110.354 160.523 110.656 160.158C110.958 159.794 111.318 159.513 111.734 159.315C112.156 159.112 112.622 159.01 113.133 159.01C113.549 159.01 113.924 159.067 114.258 159.182C114.591 159.291 114.875 159.468 115.109 159.713C115.349 159.958 115.531 160.276 115.656 160.666C115.781 161.052 115.844 161.523 115.844 162.08V167.619H114.391V162.065C114.391 161.622 114.326 161.268 114.195 161.002C114.065 160.731 113.875 160.536 113.625 160.416C113.375 160.291 113.068 160.229 112.703 160.229C112.344 160.229 112.016 160.304 111.719 160.455C111.427 160.606 111.174 160.815 110.961 161.08C110.753 161.346 110.589 161.651 110.469 161.994C110.354 162.333 110.297 162.692 110.297 163.073Z" fill="#0DA2CC"/>
<path d="M101.391 280.066H98.5078L98.4922 278.855H101.109C101.542 278.855 101.919 278.782 102.242 278.636C102.565 278.49 102.815 278.282 102.992 278.011C103.174 277.735 103.266 277.407 103.266 277.027C103.266 276.61 103.185 276.271 103.023 276.011C102.867 275.745 102.625 275.553 102.297 275.433C101.974 275.308 101.562 275.245 101.062 275.245H98.8438V285.386H97.3359V274.011H101.062C101.646 274.011 102.167 274.071 102.625 274.191C103.083 274.305 103.471 274.488 103.789 274.738C104.112 274.982 104.357 275.295 104.523 275.675C104.69 276.055 104.773 276.511 104.773 277.042C104.773 277.511 104.654 277.935 104.414 278.316C104.174 278.691 103.841 278.998 103.414 279.238C102.992 279.477 102.497 279.631 101.93 279.698L101.391 280.066ZM101.32 285.386H97.9141L98.7656 284.159H101.32C101.799 284.159 102.206 284.076 102.539 283.909C102.878 283.743 103.135 283.508 103.312 283.206C103.49 282.899 103.578 282.537 103.578 282.12C103.578 281.698 103.503 281.334 103.352 281.027C103.201 280.719 102.964 280.482 102.641 280.316C102.318 280.149 101.901 280.066 101.391 280.066H99.2422L99.2578 278.855H102.195L102.516 279.292C103.062 279.339 103.526 279.495 103.906 279.761C104.286 280.021 104.576 280.355 104.773 280.761C104.977 281.167 105.078 281.615 105.078 282.105C105.078 282.813 104.922 283.412 104.609 283.902C104.302 284.386 103.867 284.756 103.305 285.011C102.742 285.261 102.081 285.386 101.32 285.386Z" fill="black"/>
<circle cx="101" cy="265.935" r="2.5" fill="black" stroke="black" stroke-width="2" stroke-linecap="round" stroke-linejoin="round"/>
<path d="M201 265.533L101 24.439L1 265.533" stroke="black" stroke-width="2" stroke-linecap="round" stroke-linejoin="round"/>
<path d="M1 265.664C8.00329 245.421 45.7715 225.958 101 225.958C156.228 225.958 194.203 243.469 201 265.664" stroke="black" stroke-width="2" stroke-linecap="round" stroke-linejoin="round" stroke-dasharray="10 10"/>
<path d="M201 265.533C201 287.462 156.228 305.239 101 305.239C45.7715 305.239 1 287.462 1 265.533" stroke="black" stroke-width="2" stroke-linecap="round" stroke-linejoin="round"/>
<circle cx="101" cy="24.439" r="2.5" fill="black" stroke="black" stroke-width="2" stroke-linecap="round" stroke-linejoin="round"/>
<path d="M101.312 4.63281L97.5469 15H96.0078L100.344 3.625H101.336L101.312 4.63281ZM104.469 15L100.695 4.63281L100.672 3.625H101.664L106.016 15H104.469ZM104.273 10.7891V12.0234H97.8828V10.7891H104.273Z" fill="black"/>
</svg>
