<svg width="287" height="325" viewBox="0 0 287 325" fill="none" xmlns="http://www.w3.org/2000/svg">
<path d="M6.35742 300.083L98.0198 208.249M98.0198 24.5804V208.249M281.344 208.249H98.0198" stroke="white" stroke-width="2" stroke-linecap="round" stroke-linejoin="round" stroke-dasharray="10 10"/>
<path d="M97.1038 228.126H94.7157L94.7314 226.9H97.1038C97.9208 226.9 98.6016 226.73 99.1462 226.392C99.6909 226.048 100.099 225.569 100.372 224.954C100.649 224.334 100.788 223.61 100.788 222.782V222.087C100.788 221.436 100.71 220.858 100.552 220.353C100.395 219.842 100.165 219.413 99.8611 219.064C99.5574 218.709 99.1855 218.441 98.7456 218.259C98.3109 218.077 97.8108 217.985 97.2452 217.985H94.6685V216.751H97.2452C97.9941 216.751 98.6775 216.876 99.2955 217.126C99.9135 217.371 100.445 217.728 100.89 218.196C101.341 218.66 101.686 219.222 101.927 219.884C102.168 220.54 102.288 221.28 102.288 222.103V222.782C102.288 223.605 102.168 224.347 101.927 225.009C101.686 225.665 101.338 226.225 100.882 226.689C100.432 227.152 99.8873 227.509 99.2484 227.759C98.6147 228.004 97.8998 228.126 97.1038 228.126ZM95.5248 216.751V228.126H94.0087V216.751H95.5248Z" fill="white"/>
<path d="M6.35742 116.415H189.682M6.35742 116.415V300.083H189.682M6.35742 116.415L98.0198 24.5804H281.344M189.682 116.415V300.083M189.682 116.415L281.344 24.5804M189.682 300.083L281.344 208.249V24.5804" stroke="white" stroke-width="2" stroke-linejoin="round"/>
<path d="M101.073 8.71558V9.94214H94.8831V8.71558H101.073ZM95.1188 3.82495V15.2H93.6026V3.82495H95.1188ZM102.393 3.82495V15.2H100.885V3.82495H102.393Z" fill="white"/>
<path d="M285.615 9.33594V13.5C285.474 13.7083 285.249 13.9427 284.94 14.2031C284.631 14.4583 284.204 14.6823 283.659 14.875C283.12 15.0625 282.423 15.1562 281.57 15.1562C280.873 15.1562 280.232 15.0365 279.645 14.7969C279.064 14.5521 278.559 14.1979 278.129 13.7344C277.705 13.2656 277.375 12.6979 277.139 12.0312C276.909 11.3594 276.794 10.599 276.794 9.75V8.86719C276.794 8.01823 276.893 7.26042 277.092 6.59375C277.296 5.92708 277.595 5.36198 277.988 4.89844C278.38 4.42969 278.862 4.07552 279.433 3.83594C280.004 3.59115 280.659 3.46875 281.397 3.46875C282.272 3.46875 283.002 3.61979 283.589 3.92188C284.181 4.21875 284.641 4.63021 284.971 5.15625C285.306 5.68229 285.521 6.28125 285.615 6.95312H284.099C284.031 6.54167 283.895 6.16667 283.691 5.82812C283.492 5.48958 283.206 5.21875 282.835 5.01562C282.463 4.80729 281.984 4.70312 281.397 4.70312C280.868 4.70312 280.41 4.79948 280.022 4.99219C279.635 5.1849 279.315 5.46094 279.064 5.82031C278.813 6.17969 278.624 6.61458 278.498 7.125C278.378 7.63542 278.318 8.21094 278.318 8.85156V9.75C278.318 10.4062 278.394 10.9922 278.545 11.5078C278.703 12.0234 278.925 12.4635 279.213 12.8281C279.501 13.1875 279.844 13.4609 280.242 13.6484C280.645 13.8359 281.091 13.9297 281.578 13.9297C282.117 13.9297 282.554 13.8854 282.89 13.7969C283.225 13.7031 283.487 13.5938 283.675 13.4688C283.864 13.3385 284.008 13.2161 284.107 13.1016V10.5547H281.46V9.33594H285.615Z" fill="white"/>
<path d="M188.122 95.464V106.839H186.606V95.464H188.122ZM192.914 100.581V101.816H187.793V100.581H192.914ZM193.692 95.464V96.6984H187.793V95.464H193.692Z" fill="white"/>
<path d="M10.4716 105.608V106.834H4.41487V105.608H10.4716ZM4.72124 95.4592V106.834H3.2051V95.4592H4.72124ZM9.67028 100.35V101.576H4.41487V100.35H9.67028ZM10.393 95.4592V96.6936H4.41487V95.4592H10.393Z" fill="white"/>
<path d="M284.399 226.109H285.908C285.829 226.828 285.622 227.471 285.287 228.039C284.952 228.606 284.478 229.057 283.865 229.39C283.252 229.718 282.488 229.882 281.571 229.882C280.901 229.882 280.291 229.757 279.741 229.507C279.196 229.257 278.728 228.903 278.335 228.445C277.942 227.981 277.638 227.427 277.424 226.781C277.214 226.13 277.109 225.406 277.109 224.609V223.476C277.109 222.679 277.214 221.958 277.424 221.312C277.638 220.661 277.945 220.104 278.343 219.64C278.746 219.177 279.23 218.82 279.796 218.57C280.362 218.32 280.998 218.195 281.705 218.195C282.569 218.195 283.3 218.356 283.897 218.679C284.494 219.002 284.957 219.45 285.287 220.023C285.622 220.591 285.829 221.25 285.908 222H284.399C284.326 221.468 284.19 221.013 283.991 220.632C283.792 220.247 283.509 219.95 283.142 219.742C282.776 219.533 282.297 219.429 281.705 219.429C281.197 219.429 280.749 219.526 280.362 219.718C279.979 219.911 279.657 220.184 279.395 220.539C279.139 220.893 278.945 221.317 278.814 221.812C278.683 222.307 278.618 222.856 278.618 223.46V224.609C278.618 225.166 278.675 225.69 278.79 226.179C278.911 226.669 279.092 227.098 279.332 227.468C279.573 227.838 279.88 228.13 280.252 228.343C280.623 228.552 281.063 228.656 281.571 228.656C282.215 228.656 282.729 228.554 283.111 228.351C283.493 228.148 283.781 227.856 283.975 227.476C284.174 227.096 284.316 226.64 284.399 226.109Z" fill="white"/>
<path d="M190.124 314.773H187.225L187.209 313.562H189.841C190.275 313.562 190.655 313.489 190.98 313.343C191.304 313.198 191.556 312.989 191.734 312.718C191.917 312.442 192.009 312.114 192.009 311.734C192.009 311.317 191.928 310.979 191.765 310.718C191.608 310.453 191.365 310.26 191.035 310.14C190.71 310.015 190.296 309.953 189.794 309.953H187.563V320.093H186.046V308.718H189.794C190.38 308.718 190.904 308.778 191.365 308.898C191.826 309.013 192.216 309.195 192.535 309.445C192.86 309.69 193.106 310.002 193.274 310.382C193.441 310.763 193.525 311.218 193.525 311.75C193.525 312.218 193.405 312.643 193.164 313.023C192.923 313.398 192.588 313.705 192.158 313.945C191.734 314.185 191.236 314.338 190.666 314.406L190.124 314.773ZM190.053 320.093H186.628L187.484 318.867H190.053C190.535 318.867 190.943 318.783 191.278 318.617C191.619 318.45 191.878 318.216 192.056 317.914C192.234 317.606 192.323 317.244 192.323 316.828C192.323 316.406 192.247 316.041 192.095 315.734C191.943 315.427 191.705 315.19 191.38 315.023C191.056 314.856 190.637 314.773 190.124 314.773H187.963L187.979 313.562H190.933L191.255 314C191.805 314.047 192.271 314.203 192.653 314.468C193.035 314.729 193.326 315.062 193.525 315.468C193.729 315.875 193.831 316.323 193.831 316.812C193.831 317.52 193.674 318.119 193.36 318.609C193.051 319.093 192.614 319.463 192.048 319.718C191.483 319.968 190.817 320.093 190.053 320.093Z" fill="white"/>
<path d="M6.52232 309.593L2.73591 319.96H1.18835L5.54822 308.585H6.54589L6.52232 309.593ZM9.69599 319.96L5.90172 309.593L5.87816 308.585H6.87582L11.2514 319.96H9.69599ZM9.4996 315.749V316.984H3.0737V315.749H9.4996Z" fill="white"/>
</svg>
