<svg width="320" height="248" viewBox="0 0 320 248" fill="none" xmlns="http://www.w3.org/2000/svg">
<path d="M68.4666 32.2177V154.556M6.67505 216.354L68.4666 154.556M68.4666 154.556L313.171 154.556" stroke="black" stroke-width="2" stroke-linecap="round" stroke-linejoin="round" stroke-dasharray="10 10"/>
<path d="M72.891 175.546H70.5029L70.5186 174.319H72.891C73.708 174.319 74.3888 174.15 74.9335 173.811C75.4781 173.468 75.8866 172.988 76.159 172.374C76.4365 171.754 76.5753 171.03 76.5753 170.202V169.507C76.5753 168.856 76.4967 168.277 76.3396 167.772C76.1825 167.262 75.9521 166.832 75.6483 166.483C75.3446 166.129 74.9728 165.861 74.5328 165.678C74.0982 165.496 73.598 165.405 73.0324 165.405H70.4558V164.171H73.0324C73.7813 164.171 74.4648 164.296 75.0827 164.546C75.7007 164.79 76.2323 165.147 76.6774 165.616C77.1278 166.08 77.4735 166.642 77.7144 167.303C77.9553 167.96 78.0757 168.699 78.0757 169.522V170.202C78.0757 171.025 77.9553 171.767 77.7144 172.428C77.4735 173.085 77.1252 173.645 76.6696 174.108C76.2192 174.572 75.6745 174.928 75.0356 175.178C74.4019 175.423 73.6871 175.546 72.891 175.546ZM71.312 164.171V175.546H69.7959V164.171H71.312Z" fill="black"/>
<path d="M6.67145 93.961H251.444M6.67145 93.961V216.347H251.444M6.67145 93.961L68.4112 32.2212L313.183 32.2212M251.444 93.961V216.347M251.444 93.961L313.183 32.2212M251.444 216.347L313.183 154.607V32.2212" stroke="black" stroke-width="2" stroke-linecap="round" stroke-linejoin="round"/>
<path d="M71.2732 14.5156V15.7422H65.0829V14.5156H71.2732ZM65.3186 9.625V21H63.8025V9.625H65.3186ZM72.5929 9.625V21H71.0846V9.625H72.5929Z" fill="black"/>
<path d="M317.291 15.3359V19.5C317.149 19.7083 316.924 19.9427 316.615 20.2031C316.306 20.4583 315.879 20.6823 315.335 20.875C314.795 21.0625 314.099 21.1562 313.245 21.1562C312.549 21.1562 311.907 21.0365 311.321 20.7969C310.739 20.5521 310.234 20.1979 309.804 19.7344C309.38 19.2656 309.05 18.6979 308.815 18.0312C308.584 17.3594 308.469 16.599 308.469 15.75V14.8672C308.469 14.0182 308.568 13.2604 308.768 12.5938C308.972 11.9271 309.27 11.362 309.663 10.8984C310.056 10.4297 310.538 10.0755 311.108 9.83594C311.679 9.59115 312.334 9.46875 313.072 9.46875C313.947 9.46875 314.678 9.61979 315.264 9.92188C315.856 10.2188 316.317 10.6302 316.647 11.1562C316.982 11.6823 317.197 12.2812 317.291 12.9531H315.775C315.707 12.5417 315.57 12.1667 315.366 11.8281C315.167 11.4896 314.882 11.2188 314.51 11.0156C314.138 10.8073 313.659 10.7031 313.072 10.7031C312.543 10.7031 312.085 10.7995 311.698 10.9922C311.31 11.1849 310.991 11.4609 310.739 11.8203C310.488 12.1797 310.299 12.6146 310.174 13.125C310.053 13.6354 309.993 14.2109 309.993 14.8516V15.75C309.993 16.4062 310.069 16.9922 310.221 17.5078C310.378 18.0234 310.6 18.4635 310.889 18.8281C311.177 19.1875 311.52 19.4609 311.918 19.6484C312.321 19.8359 312.766 19.9297 313.253 19.9297C313.792 19.9297 314.23 19.8854 314.565 19.7969C314.9 19.7031 315.162 19.5938 315.351 19.4688C315.539 19.3385 315.683 19.2161 315.783 19.1016V16.5547H313.135V15.3359H317.291Z" fill="black"/>
<path d="M249.46 71.2661V82.6411H247.944V71.2661H249.46ZM254.252 76.3833V77.6177H249.13V76.3833H254.252ZM255.029 71.2661V72.5005H249.13V71.2661H255.029Z" fill="black"/>
<path d="M10.0497 81.4146V82.6411H3.99299V81.4146H10.0497ZM4.29936 71.2661V82.6411H2.78323V71.2661H4.29936ZM9.24841 76.1567V77.3833H3.99299V76.1567H9.24841ZM9.97112 71.2661V72.5005H3.99299V71.2661H9.97112Z" fill="black"/>
<path d="M315.987 171.928H317.495C317.417 172.647 317.21 173.29 316.875 173.858C316.539 174.426 316.065 174.876 315.453 175.21C314.84 175.538 314.075 175.702 313.159 175.702C312.488 175.702 311.878 175.577 311.328 175.327C310.784 175.077 310.315 174.723 309.922 174.264C309.529 173.801 309.226 173.246 309.011 172.6C308.802 171.949 308.697 171.225 308.697 170.428V169.296C308.697 168.499 308.802 167.777 309.011 167.132C309.226 166.481 309.532 165.923 309.93 165.46C310.333 164.996 310.818 164.639 311.383 164.389C311.949 164.139 312.585 164.014 313.292 164.014C314.156 164.014 314.887 164.176 315.484 164.499C316.081 164.822 316.545 165.27 316.875 165.843C317.21 166.41 317.417 167.069 317.495 167.819H315.987C315.914 167.288 315.777 166.832 315.578 166.452C315.379 166.066 315.097 165.77 314.73 165.561C314.363 165.353 313.884 165.249 313.292 165.249C312.784 165.249 312.337 165.345 311.949 165.538C311.567 165.731 311.245 166.004 310.983 166.358C310.726 166.712 310.532 167.137 310.401 167.632C310.271 168.126 310.205 168.676 310.205 169.28V170.428C310.205 170.986 310.263 171.509 310.378 171.999C310.498 172.488 310.679 172.918 310.92 173.288C311.161 173.658 311.467 173.949 311.839 174.163C312.211 174.371 312.651 174.475 313.159 174.475C313.803 174.475 314.316 174.374 314.699 174.171C315.081 173.968 315.369 173.676 315.563 173.296C315.762 172.915 315.903 172.46 315.987 171.928Z" fill="black"/>
<path d="M251.455 232.314H248.556L248.54 231.104H251.172C251.607 231.104 251.986 231.031 252.311 230.885C252.636 230.739 252.887 230.531 253.065 230.26C253.249 229.984 253.34 229.656 253.34 229.275C253.34 228.859 253.259 228.52 253.097 228.26C252.94 227.994 252.696 227.801 252.366 227.682C252.041 227.557 251.628 227.494 251.125 227.494H248.894V237.635H247.378V226.26H251.125C251.712 226.26 252.235 226.32 252.696 226.439C253.157 226.554 253.547 226.736 253.867 226.986C254.191 227.231 254.437 227.544 254.605 227.924C254.773 228.304 254.856 228.76 254.856 229.291C254.856 229.76 254.736 230.184 254.495 230.564C254.254 230.939 253.919 231.247 253.49 231.486C253.065 231.726 252.568 231.88 251.997 231.947L251.455 232.314ZM251.384 237.635H247.959L248.815 236.408H251.384C251.866 236.408 252.275 236.325 252.61 236.158C252.95 235.992 253.209 235.757 253.387 235.455C253.565 235.148 253.655 234.786 253.655 234.369C253.655 233.947 253.579 233.583 253.427 233.275C253.275 232.968 253.037 232.731 252.712 232.564C252.387 232.398 251.968 232.314 251.455 232.314H249.295L249.31 231.104H252.264L252.586 231.541C253.136 231.588 253.602 231.744 253.984 232.01C254.367 232.27 254.657 232.604 254.856 233.01C255.061 233.416 255.163 233.864 255.163 234.354C255.163 235.062 255.006 235.661 254.691 236.15C254.382 236.635 253.945 237.005 253.38 237.26C252.814 237.51 252.149 237.635 251.384 237.635Z" fill="black"/>
<path d="M6.84458 227.023L3.05817 237.39H1.51062L5.87049 226.015H6.86815L6.84458 227.023ZM10.0183 237.39L6.22399 227.023L6.20042 226.015H7.19809L11.5737 237.39H10.0183ZM9.82187 233.179V234.413H3.39597V233.179H9.82187Z" fill="black"/>
</svg>
