<svg width="203" height="310" viewBox="0 0 203 310" fill="none" xmlns="http://www.w3.org/2000/svg">
<path d="M1.88867 268.899C1.88867 246.971 46.6602 229.194 101.889 229.194C157.117 229.194 201.889 246.971 201.889 268.899" stroke="black" stroke-width="2" stroke-linecap="round" stroke-linejoin="round" stroke-dasharray="10 10"/>
<path d="M201.889 268.768C201.889 290.697 157.117 308.474 101.889 308.474C46.6602 308.474 1.88867 290.697 1.88867 268.768" stroke="black" stroke-width="2" stroke-linecap="round" stroke-linejoin="round"/>
<path d="M201.889 269.231H101.889" stroke="#0DA2CC" stroke-width="2" stroke-linecap="round" stroke-linejoin="round"/>
<path d="M151.725 256.921V264.046H150.279V255.593H151.686L151.725 256.921ZM154.365 255.546L154.357 256.89C154.238 256.864 154.123 256.848 154.014 256.843C153.91 256.833 153.79 256.828 153.654 256.828C153.321 256.828 153.027 256.88 152.771 256.984C152.516 257.088 152.3 257.234 152.123 257.421C151.946 257.609 151.805 257.833 151.701 258.093C151.602 258.348 151.537 258.63 151.506 258.937L151.1 259.171C151.1 258.661 151.149 258.182 151.248 257.734C151.352 257.286 151.511 256.89 151.725 256.546C151.938 256.197 152.209 255.927 152.537 255.734C152.87 255.536 153.266 255.437 153.725 255.437C153.829 255.437 153.949 255.45 154.084 255.476C154.219 255.497 154.313 255.52 154.365 255.546Z" fill="#0DA2CC"/>
<path d="M101.889 41.4368L101.889 269.231" stroke="#0DA2CC" stroke-width="2" stroke-linecap="round" stroke-linejoin="round"/>
<path d="M111.436 148.603V160.603H109.99V148.603H111.436ZM111.092 156.056L110.49 156.032C110.495 155.454 110.581 154.92 110.748 154.431C110.915 153.936 111.149 153.506 111.451 153.142C111.753 152.777 112.113 152.496 112.529 152.298C112.951 152.095 113.417 151.993 113.928 151.993C114.344 151.993 114.719 152.05 115.053 152.165C115.386 152.274 115.67 152.451 115.904 152.696C116.144 152.941 116.326 153.259 116.451 153.649C116.576 154.035 116.639 154.506 116.639 155.063V160.603H115.186V155.048C115.186 154.605 115.12 154.251 114.99 153.985C114.86 153.715 114.67 153.519 114.42 153.399C114.17 153.274 113.863 153.212 113.498 153.212C113.139 153.212 112.811 153.287 112.514 153.438C112.222 153.59 111.969 153.798 111.756 154.063C111.548 154.329 111.383 154.634 111.264 154.978C111.149 155.316 111.092 155.675 111.092 156.056Z" fill="#0DA2CC"/>
<circle cx="101.889" cy="269.231" r="2.5" fill="black" stroke="black" stroke-width="2" stroke-linecap="round" stroke-linejoin="round"/>
<path d="M101.92 280.385L98.1543 290.752H96.6152L100.951 279.377H101.943L101.92 280.385ZM105.076 290.752L101.303 280.385L101.279 279.377H102.271L106.623 290.752H105.076ZM104.881 286.541V287.776H98.4902V286.541H104.881Z" fill="black"/>
<path d="M1.88867 41.4368V268.768M201.889 41.4368V268.768" stroke="black" stroke-width="2" stroke-linecap="round" stroke-linejoin="round"/>
<ellipse cx="101.889" cy="41.4367" rx="100" ry="39.7058" stroke="black" stroke-width="2" stroke-linecap="round" stroke-linejoin="round"/>
</svg>
