<svg width="217" height="326" viewBox="0 0 217 326" fill="none" xmlns="http://www.w3.org/2000/svg">
<path d="M108.903 23.4941V233.17M108.903 233.17L199.892 259.861M108.903 233.17L17.9147 259.862" stroke="black" stroke-width="2" stroke-miterlimit="10" stroke-linecap="round" stroke-linejoin="round" stroke-dasharray="10 10"/>
<path d="M112.321 250.914V252.141H106.298V250.914H112.321ZM106.603 240.766V252.141H105.095V240.766H106.603ZM111.524 245.656V246.883H106.298V245.656H111.524ZM112.243 240.766V242H106.298V240.766H112.243Z" fill="black"/>
<path d="M52.6718 93.3647V303.04M52.6718 93.3647L165.142 93.3693M52.6718 93.3647L17.915 50.1818M52.6718 303.04H165.142M52.6718 303.04L17.915 259.858V50.1818M165.142 303.04L199.89 259.86V50.1857M165.142 303.04V93.3693M199.89 50.1857L165.142 93.3693M199.89 50.1857L108.905 23.4895L17.915 50.1818" stroke="black" stroke-width="2" stroke-miterlimit="10" stroke-linecap="round" stroke-linejoin="round"/>
<path d="M111.09 12.2949V4.24023H112.59V12.2949C112.59 13.0449 112.436 13.6777 112.129 14.1934C111.821 14.709 111.397 15.1022 110.855 15.373C110.319 15.6387 109.702 15.7715 109.004 15.7715C108.306 15.7715 107.686 15.6517 107.144 15.4121C106.603 15.1725 106.178 14.8079 105.871 14.3184C105.564 13.8288 105.41 13.2116 105.41 12.4668H106.918C106.918 12.946 107.006 13.3392 107.183 13.6465C107.361 13.9538 107.605 14.1803 107.918 14.3262C108.236 14.472 108.598 14.5449 109.004 14.5449C109.4 14.5449 109.754 14.4616 110.066 14.2949C110.384 14.123 110.634 13.8704 110.816 13.5371C110.999 13.1986 111.09 12.7845 111.09 12.2949Z" fill="black"/>
<path d="M212.502 41.8074V53.1824H210.994V41.8074H212.502Z" fill="black"/>
<path d="M183.111 100.425V101.651H176.955V100.425H183.111ZM177.189 95.5339V106.909H175.682V95.5339H177.189ZM184.424 95.5339V106.909H182.924V95.5339H184.424Z" fill="black"/>
<path d="M41.165 101.245V105.409C41.0244 105.618 40.8005 105.852 40.4932 106.112C40.1859 106.368 39.7614 106.591 39.2197 106.784C38.6833 106.972 37.9906 107.065 37.1416 107.065C36.4489 107.065 35.8109 106.946 35.2275 106.706C34.6494 106.461 34.1468 106.107 33.7197 105.644C33.2979 105.175 32.9697 104.607 32.7354 103.94C32.5062 103.269 32.3916 102.508 32.3916 101.659V100.776C32.3916 99.9274 32.4906 99.1696 32.6885 98.5029C32.8916 97.8363 33.1885 97.2712 33.5791 96.8076C33.9697 96.3389 34.4489 95.9847 35.0166 95.7451C35.5843 95.5003 36.2354 95.3779 36.9697 95.3779C37.8395 95.3779 38.5661 95.529 39.1494 95.8311C39.738 96.1279 40.1963 96.5394 40.5244 97.0654C40.8577 97.5915 41.0713 98.1904 41.165 98.8623H39.6572C39.5895 98.4508 39.4541 98.0758 39.251 97.7373C39.0531 97.3988 38.7692 97.1279 38.3994 96.9248C38.0296 96.7165 37.5531 96.6123 36.9697 96.6123C36.4437 96.6123 35.988 96.7087 35.6025 96.9014C35.2171 97.0941 34.8994 97.3701 34.6494 97.7295C34.3994 98.0889 34.2119 98.5238 34.0869 99.0342C33.9671 99.5446 33.9072 100.12 33.9072 100.761V101.659C33.9072 102.315 33.9827 102.901 34.1338 103.417C34.29 103.933 34.5114 104.373 34.7979 104.737C35.0843 105.097 35.4255 105.37 35.8213 105.558C36.2223 105.745 36.665 105.839 37.1494 105.839C37.6859 105.839 38.1208 105.795 38.4541 105.706C38.7874 105.612 39.0479 105.503 39.2354 105.378C39.4229 105.248 39.5661 105.125 39.665 105.011V102.464H37.0322V101.245H41.165Z" fill="black"/>
<path d="M2.98438 41.8074V53.1824H1.47656V41.8074H2.98438ZM7.75 46.9246V48.1589H2.65625V46.9246H7.75ZM8.52344 41.8074V43.0417H2.65625V41.8074H8.52344Z" fill="black"/>
<path d="M207.423 278.559H205.048L205.063 277.332H207.423C208.235 277.332 208.912 277.163 209.454 276.824C209.996 276.48 210.402 276.001 210.673 275.387C210.949 274.767 211.087 274.043 211.087 273.215V272.52C211.087 271.868 211.009 271.29 210.853 270.785C210.696 270.275 210.467 269.845 210.165 269.496C209.863 269.142 209.493 268.874 209.056 268.691C208.623 268.509 208.126 268.418 207.563 268.418H205.001V267.184H207.563C208.308 267.184 208.988 267.309 209.603 267.559C210.217 267.803 210.746 268.16 211.188 268.629C211.636 269.092 211.98 269.655 212.22 270.316C212.459 270.973 212.579 271.712 212.579 272.535V273.215C212.579 274.038 212.459 274.78 212.22 275.441C211.98 276.098 211.634 276.658 211.181 277.121C210.733 277.585 210.191 277.941 209.556 278.191C208.925 278.436 208.215 278.559 207.423 278.559ZM205.853 267.184V278.559H204.345V267.184H205.853Z" fill="black"/>
<path d="M167.868 318.229H169.368C169.29 318.948 169.084 319.591 168.751 320.159C168.418 320.727 167.946 321.177 167.337 321.511C166.728 321.839 165.967 322.003 165.056 322.003C164.389 322.003 163.782 321.878 163.235 321.628C162.694 321.378 162.228 321.024 161.837 320.565C161.446 320.102 161.144 319.547 160.931 318.901C160.722 318.25 160.618 317.526 160.618 316.729V315.597C160.618 314.8 160.722 314.078 160.931 313.433C161.144 312.782 161.449 312.224 161.845 311.761C162.246 311.297 162.728 310.94 163.29 310.69C163.853 310.44 164.485 310.315 165.188 310.315C166.048 310.315 166.774 310.477 167.368 310.8C167.962 311.123 168.423 311.571 168.751 312.144C169.084 312.711 169.29 313.37 169.368 314.12H167.868C167.795 313.589 167.66 313.133 167.462 312.753C167.264 312.368 166.983 312.071 166.618 311.862C166.254 311.654 165.777 311.55 165.188 311.55C164.683 311.55 164.238 311.646 163.853 311.839C163.472 312.032 163.152 312.305 162.892 312.659C162.636 313.013 162.444 313.438 162.313 313.933C162.183 314.427 162.118 314.977 162.118 315.581V316.729C162.118 317.287 162.175 317.81 162.29 318.3C162.41 318.789 162.59 319.219 162.829 319.589C163.069 319.959 163.373 320.25 163.743 320.464C164.113 320.672 164.55 320.776 165.056 320.776C165.696 320.776 166.207 320.675 166.587 320.472C166.967 320.269 167.254 319.977 167.446 319.597C167.644 319.216 167.785 318.761 167.868 318.229Z" fill="black"/>
<path d="M53.0264 316.526H50.1436L50.1279 315.315H52.7451C53.1774 315.315 53.555 315.243 53.8779 315.097C54.2008 314.951 54.4508 314.743 54.6279 314.472C54.8102 314.196 54.9014 313.868 54.9014 313.487C54.9014 313.071 54.8206 312.732 54.6592 312.472C54.5029 312.206 54.2607 312.013 53.9326 311.894C53.6097 311.769 53.1982 311.706 52.6982 311.706H50.4795V321.847H48.9717V310.472H52.6982C53.2816 310.472 53.8024 310.532 54.2607 310.651C54.7191 310.766 55.1071 310.948 55.4248 311.198C55.7477 311.443 55.9925 311.756 56.1592 312.136C56.3258 312.516 56.4092 312.972 56.4092 313.503C56.4092 313.972 56.2894 314.396 56.0498 314.776C55.8102 315.151 55.4769 315.459 55.0498 315.698C54.6279 315.938 54.1331 316.091 53.5654 316.159L53.0264 316.526ZM52.9561 321.847H49.5498L50.4014 320.62H52.9561C53.4352 320.62 53.8415 320.537 54.1748 320.37C54.5133 320.203 54.7712 319.969 54.9482 319.667C55.1253 319.36 55.2139 318.998 55.2139 318.581C55.2139 318.159 55.1383 317.795 54.9873 317.487C54.8363 317.18 54.5993 316.943 54.2764 316.776C53.9535 316.61 53.5368 316.526 53.0264 316.526H50.8779L50.8936 315.315H53.8311L54.1514 315.753C54.6982 315.8 55.1618 315.956 55.542 316.222C55.9222 316.482 56.2113 316.815 56.4092 317.222C56.6123 317.628 56.7139 318.076 56.7139 318.565C56.7139 319.274 56.5576 319.873 56.2451 320.362C55.9378 320.847 55.5029 321.216 54.9404 321.472C54.3779 321.722 53.7165 321.847 52.9561 321.847Z" fill="black"/>
<path d="M9.94922 266.996L6.18359 277.364H4.64453L8.98047 265.989H9.97266L9.94922 266.996ZM13.1055 277.364L9.33203 266.996L9.30859 265.989H10.3008L14.6523 277.364H13.1055ZM12.9102 273.153V274.387H6.51953V273.153H12.9102Z" fill="black"/>
</svg>
