<svg width="321" height="320" viewBox="0 0 321 320" fill="none" xmlns="http://www.w3.org/2000/svg">
<path d="M5.27826 297.906L111.199 191.986M315.639 191.986H111.199M111.199 191.986L160.459 31.4861" stroke="black" stroke-width="2" stroke-linecap="round" stroke-linejoin="round" stroke-dasharray="10 10"/>
<path d="M160.618 31.4863L160.618 244.565" stroke="#0DA2CC" stroke-width="2" stroke-linecap="round" stroke-linejoin="round"/>
<path d="M144.531 147.628V159.628H143.086V147.628H144.531ZM144.188 155.081L143.586 155.058C143.591 154.479 143.677 153.946 143.844 153.456C144.01 152.961 144.245 152.532 144.547 152.167C144.849 151.802 145.208 151.521 145.625 151.323C146.047 151.12 146.513 151.019 147.023 151.019C147.44 151.019 147.815 151.076 148.148 151.19C148.482 151.3 148.766 151.477 149 151.722C149.24 151.966 149.422 152.284 149.547 152.675C149.672 153.06 149.734 153.532 149.734 154.089V159.628H148.281V154.073C148.281 153.631 148.216 153.276 148.086 153.011C147.956 152.74 147.766 152.545 147.516 152.425C147.266 152.3 146.958 152.237 146.594 152.237C146.234 152.237 145.906 152.313 145.609 152.464C145.318 152.615 145.065 152.823 144.852 153.089C144.643 153.354 144.479 153.659 144.359 154.003C144.245 154.341 144.188 154.701 144.188 155.081Z" fill="#0DA2CC"/>
<path d="M110.585 211.909H108.197L108.213 210.682H110.585C111.402 210.682 112.083 210.513 112.628 210.175C113.172 209.831 113.581 209.352 113.853 208.737C114.131 208.117 114.27 207.393 114.27 206.565V205.87C114.27 205.219 114.191 204.641 114.034 204.135C113.877 203.625 113.646 203.195 113.343 202.846C113.039 202.492 112.667 202.224 112.227 202.042C111.792 201.859 111.292 201.768 110.727 201.768H108.15V200.534H110.727C111.476 200.534 112.159 200.659 112.777 200.909C113.395 201.154 113.926 201.51 114.372 201.979C114.822 202.443 115.168 203.005 115.409 203.667C115.649 204.323 115.77 205.063 115.77 205.885V206.565C115.77 207.388 115.649 208.13 115.409 208.792C115.168 209.448 114.819 210.008 114.364 210.471C113.913 210.935 113.369 211.292 112.73 211.542C112.096 211.787 111.381 211.909 110.585 211.909ZM109.006 200.534V211.909H107.49V200.534H109.006Z" fill="black"/>
<path d="M209.719 297.906H5.27826L160.459 31.4861M209.719 297.906L315.639 191.986L160.459 31.4861M209.719 297.906L160.459 31.4861" stroke="black" stroke-width="2" stroke-linecap="round" stroke-linejoin="round"/>
<path d="M109.197 314.114V309.762C109.197 309.429 109.128 309.14 108.992 308.895C108.861 308.645 108.662 308.452 108.395 308.317C108.128 308.181 107.798 308.114 107.405 308.114C107.039 308.114 106.717 308.176 106.439 308.301C106.167 308.426 105.952 308.59 105.795 308.793C105.643 308.997 105.567 309.215 105.567 309.45H104.114C104.114 309.148 104.192 308.848 104.35 308.551C104.507 308.254 104.732 307.986 105.025 307.747C105.324 307.502 105.68 307.309 106.094 307.168C106.513 307.023 106.979 306.95 107.492 306.95C108.11 306.95 108.654 307.054 109.126 307.262C109.602 307.471 109.974 307.786 110.241 308.208C110.514 308.624 110.65 309.148 110.65 309.778V313.715C110.65 313.997 110.673 314.296 110.721 314.614C110.773 314.931 110.849 315.205 110.948 315.434V315.559H109.432C109.359 315.392 109.301 315.171 109.259 314.895C109.217 314.614 109.197 314.353 109.197 314.114ZM109.448 310.434L109.464 311.45H107.995C107.581 311.45 107.212 311.484 106.887 311.551C106.562 311.614 106.29 311.71 106.07 311.84C105.85 311.971 105.682 312.135 105.567 312.333C105.452 312.525 105.394 312.752 105.394 313.012C105.394 313.278 105.455 313.52 105.575 313.739C105.696 313.958 105.876 314.132 106.117 314.262C106.363 314.387 106.664 314.45 107.021 314.45C107.466 314.45 107.858 314.356 108.199 314.168C108.539 313.981 108.809 313.752 109.008 313.481C109.212 313.21 109.322 312.947 109.338 312.692L109.959 313.387C109.922 313.606 109.822 313.848 109.66 314.114C109.498 314.379 109.28 314.635 109.008 314.879C108.741 315.119 108.421 315.319 108.05 315.481C107.683 315.637 107.269 315.715 106.808 315.715C106.232 315.715 105.727 315.603 105.292 315.379C104.863 315.155 104.528 314.856 104.287 314.481C104.051 314.101 103.933 313.676 103.933 313.208C103.933 312.754 104.022 312.356 104.2 312.012C104.378 311.663 104.635 311.374 104.97 311.145C105.305 310.911 105.709 310.734 106.18 310.614C106.651 310.494 107.178 310.434 107.759 310.434H109.448Z" fill="black"/>
<path d="M280.586 258.12V253.768C280.586 253.435 280.518 253.146 280.382 252.901C280.251 252.651 280.052 252.458 279.785 252.323C279.517 252.187 279.188 252.12 278.795 252.12C278.428 252.12 278.106 252.182 277.828 252.307C277.556 252.432 277.341 252.596 277.184 252.799C277.032 253.002 276.957 253.221 276.957 253.456H275.503C275.503 253.153 275.582 252.854 275.739 252.557C275.896 252.26 276.121 251.992 276.414 251.752C276.713 251.508 277.069 251.315 277.483 251.174C277.902 251.028 278.368 250.956 278.881 250.956C279.499 250.956 280.044 251.06 280.515 251.268C280.992 251.476 281.364 251.792 281.631 252.213C281.903 252.63 282.039 253.153 282.039 253.784V257.721C282.039 258.002 282.063 258.302 282.11 258.62C282.162 258.937 282.238 259.211 282.338 259.44V259.565H280.821C280.748 259.398 280.691 259.177 280.649 258.901C280.607 258.62 280.586 258.359 280.586 258.12ZM280.837 254.44L280.853 255.456H279.384C278.97 255.456 278.601 255.489 278.276 255.557C277.952 255.62 277.679 255.716 277.459 255.846C277.239 255.976 277.072 256.14 276.957 256.338C276.841 256.531 276.784 256.758 276.784 257.018C276.784 257.284 276.844 257.526 276.964 257.745C277.085 257.963 277.265 258.138 277.506 258.268C277.753 258.393 278.054 258.456 278.41 258.456C278.855 258.456 279.248 258.362 279.588 258.174C279.929 257.987 280.198 257.758 280.397 257.487C280.602 257.216 280.711 256.953 280.727 256.698L281.348 257.393C281.311 257.612 281.212 257.854 281.049 258.12C280.887 258.385 280.67 258.64 280.397 258.885C280.13 259.125 279.811 259.325 279.439 259.487C279.072 259.643 278.659 259.721 278.198 259.721C277.622 259.721 277.116 259.609 276.682 259.385C276.252 259.161 275.917 258.862 275.676 258.487C275.44 258.107 275.323 257.682 275.323 257.213C275.323 256.76 275.412 256.362 275.59 256.018C275.768 255.669 276.024 255.38 276.359 255.151C276.695 254.917 277.098 254.739 277.569 254.62C278.041 254.5 278.567 254.44 279.148 254.44H280.837Z" fill="black"/>
<path d="M164.138 18.9077V20.1343H158.081V18.9077H164.138ZM158.388 8.75928V20.1343H156.871V8.75928H158.388ZM163.337 13.6499V14.8765H158.081V13.6499H163.337ZM164.059 8.75928V9.99365H158.081V8.75928H164.059Z" fill="black"/>
<path d="M319.193 208.292H320.701C320.623 209.01 320.416 209.654 320.081 210.221C319.745 210.789 319.271 211.24 318.659 211.573C318.046 211.901 317.281 212.065 316.365 212.065C315.695 212.065 315.084 211.94 314.535 211.69C313.99 211.44 313.521 211.086 313.128 210.628C312.736 210.164 312.432 209.609 312.217 208.964C312.008 208.313 311.903 207.589 311.903 206.792V205.659C311.903 204.862 312.008 204.141 312.217 203.495C312.432 202.844 312.738 202.287 313.136 201.823C313.539 201.359 314.024 201.003 314.59 200.753C315.155 200.503 315.791 200.378 316.498 200.378C317.363 200.378 318.093 200.539 318.69 200.862C319.287 201.185 319.751 201.633 320.081 202.206C320.416 202.774 320.623 203.432 320.701 204.182H319.193C319.12 203.651 318.983 203.195 318.784 202.815C318.585 202.43 318.303 202.133 317.936 201.925C317.569 201.716 317.09 201.612 316.498 201.612C315.99 201.612 315.543 201.708 315.155 201.901C314.773 202.094 314.451 202.367 314.189 202.721C313.932 203.076 313.738 203.5 313.608 203.995C313.477 204.49 313.411 205.039 313.411 205.643V206.792C313.411 207.349 313.469 207.872 313.584 208.362C313.704 208.852 313.885 209.281 314.126 209.651C314.367 210.021 314.673 210.313 315.045 210.526C315.417 210.734 315.857 210.839 316.365 210.839C317.009 210.839 317.522 210.737 317.905 210.534C318.287 210.331 318.575 210.039 318.769 209.659C318.968 209.279 319.109 208.823 319.193 208.292Z" fill="black"/>
<path d="M210.179 312.693H207.28L207.265 311.482H209.896C210.331 311.482 210.711 311.409 211.035 311.263C211.36 311.118 211.611 310.909 211.789 310.638C211.973 310.362 212.064 310.034 212.064 309.654C212.064 309.237 211.983 308.899 211.821 308.638C211.664 308.373 211.42 308.18 211.09 308.06C210.766 307.935 210.352 307.873 209.849 307.873H207.618V318.013H206.102V306.638H209.849C210.436 306.638 210.959 306.698 211.42 306.818C211.881 306.933 212.271 307.115 212.591 307.365C212.915 307.61 213.162 307.922 213.329 308.302C213.497 308.683 213.581 309.138 213.581 309.67C213.581 310.138 213.46 310.563 213.219 310.943C212.978 311.318 212.643 311.625 212.214 311.865C211.789 312.105 211.292 312.258 210.721 312.326L210.179 312.693ZM210.108 318.013H206.683L207.54 316.787H210.108C210.59 316.787 210.999 316.704 211.334 316.537C211.674 316.37 211.933 316.136 212.112 315.834C212.29 315.526 212.379 315.164 212.379 314.748C212.379 314.326 212.303 313.961 212.151 313.654C211.999 313.347 211.761 313.11 211.436 312.943C211.111 312.776 210.692 312.693 210.179 312.693H208.019L208.034 311.482H210.988L211.31 311.92C211.86 311.967 212.326 312.123 212.709 312.388C213.091 312.649 213.382 312.982 213.581 313.388C213.785 313.795 213.887 314.243 213.887 314.732C213.887 315.441 213.73 316.039 213.416 316.529C213.107 317.013 212.669 317.383 212.104 317.638C211.538 317.888 210.873 318.013 210.108 318.013Z" fill="black"/>
<path d="M5.84458 307.646L2.05817 318.013H0.510616L4.87049 306.638H5.86815L5.84458 307.646ZM9.01826 318.013L5.22399 307.646L5.20042 306.638H6.19809L10.5737 318.013H9.01826ZM8.82187 313.802V315.037H2.39597V313.802H8.82187Z" fill="black"/>
</svg>
